<svg version="1.1" id="Layer_1" xmlns="http://www.w3.org/2000/svg" xmlns:xlink="http://www.w3.org/1999/xlink" x="0px" y="0px"
	 width="100%" viewBox="0 0 512 512" enable-background="new 0 0 512 512" xml:space="preserve">
<path fill="#242021" opacity="1.000000" stroke="none" 
	d="
M417.000000,513.000000 
	C412.975464,513.000000 408.950897,513.000000 404.432861,512.655640 
	C403.050354,511.130432 402.293762,509.815338 401.252808,508.788513 
	C380.509277,488.325653 359.699371,467.929901 339.009766,447.412781 
	C336.681061,445.103424 334.790894,445.030396 331.997894,446.427399 
	C321.282349,451.787109 310.496674,457.012329 299.639954,462.079529 
	C297.313965,463.165131 294.584808,463.901245 292.036377,463.915710 
	C268.043243,464.052032 244.048752,464.050781 220.055603,463.917542 
	C217.506607,463.903381 214.741287,463.242035 212.456161,462.112518 
	C202.165192,457.025665 192.072372,451.535461 181.743958,446.529358 
	C180.137009,445.750458 176.880829,445.900421 175.734619,447.011169 
	C154.330673,467.753204 133.121552,488.696503 111.920418,509.647034 
	C111.037750,510.519257 110.629356,511.871429 110.000000,513.000000 
	C105.975456,513.000000 101.950912,513.000000 97.430038,512.639404 
	C93.830482,507.708893 92.664536,502.703796 92.938995,497.166565 
	C93.219109,491.515259 92.538879,485.789978 93.136452,480.188538 
	C93.687431,475.023834 94.497963,469.558960 96.708710,464.953278 
	C109.532959,438.236481 122.808014,411.736115 135.916397,385.155548 
	C136.610016,383.749115 137.175049,382.279266 137.955551,380.480194 
	C136.596985,380.308594 135.934631,380.068848 135.330185,380.171204 
	C114.569572,383.686798 93.852631,387.490021 73.032608,390.604919 
	C67.591759,391.418945 65.555130,393.000977 65.872169,398.605957 
	C66.262291,405.502808 62.447903,408.956909 55.444839,408.982574 
	C42.448395,409.030212 29.432478,408.564423 16.461353,409.139618 
	C6.786740,409.568665 3.208765,404.762878 3.157167,396.431732 
	C2.890937,353.445007 2.885664,310.454773 3.162348,267.468170 
	C3.221339,258.303070 7.625325,255.014755 17.037495,255.004883 
	C25.368649,254.996140 33.746174,254.494553 42.009102,255.245834 
	C45.514603,255.564560 49.258377,257.985413 52.027992,260.431335 
	C55.204102,263.236298 57.216309,267.321960 60.171738,270.435944 
	C61.097149,271.411041 63.971943,271.855865 65.044846,271.153656 
	C71.293320,267.063995 77.407089,262.731476 83.246918,258.079926 
	C84.754593,256.879059 85.822350,254.258331 85.881210,252.254257 
	C86.155006,242.931381 85.726570,233.582748 86.171776,224.273102 
	C86.307007,221.445267 87.692444,217.822754 89.774673,216.087158 
	C99.968857,207.590042 110.556931,199.561966 121.082344,191.467682 
	C124.641739,188.730438 128.510468,188.229965 132.746567,190.316849 
	C136.739975,192.284164 138.130051,195.363693 138.032043,199.615036 
	C137.891602,205.705795 137.996262,211.802185 137.996262,219.065369 
	C145.084366,213.973419 151.335205,209.683990 157.353058,205.089340 
	C161.376801,202.017181 166.284775,199.218430 168.695831,195.074707 
	C178.223862,178.699600 187.015961,161.891312 195.871643,145.133041 
	C198.519012,140.123260 201.984451,136.934021 208.071320,137.233063 
	C217.008774,142.115387 218.440674,146.554413 213.779770,155.320328 
	C205.182236,171.490005 196.459579,187.593231 187.887115,203.776077 
	C186.909088,205.622375 186.021652,207.795502 186.001511,209.826096 
	C185.846298,225.480530 186.049133,241.139038 185.829895,256.791931 
	C185.767776,261.227325 188.242538,261.094513 191.227234,260.987671 
	C194.104675,260.884674 197.399033,261.876434 197.185898,256.853821 
	C196.896622,250.037506 196.715500,243.167389 197.259903,236.382278 
	C197.620010,231.893951 198.500229,227.071915 200.576080,223.156662 
	C215.860931,194.328140 231.537216,165.707428 247.000443,136.972961 
	C249.130493,133.014786 251.842743,130.173996 256.541718,130.043884 
	C261.470795,129.907410 264.417023,132.702972 266.650116,136.855347 
	C278.793518,159.435532 290.347412,182.374054 303.482819,204.365799 
	C313.199432,220.633698 319.364532,237.127151 316.737762,256.212402 
	C316.069092,261.070618 319.066040,260.977020 322.543549,261.062622 
	C326.277100,261.154541 328.309265,260.654236 328.222443,256.037537 
	C327.940735,241.053070 328.194092,226.059219 328.038879,211.071060 
	C328.014191,208.687836 327.384491,206.087250 326.286255,203.976456 
	C320.754456,193.344315 314.840302,182.910812 309.325043,172.270432 
	C305.049530,164.021866 299.620117,155.959869 297.399261,147.136444 
	C291.191376,122.472847 286.388885,97.455711 281.002045,72.584541 
	C280.747589,71.409744 280.207092,70.296898 280.108978,70.021912 
	C264.342072,77.506149 249.406372,77.914757 233.731995,69.679901 
	C232.562363,76.755066 229.075409,82.286667 219.699814,80.965782 
	C214.909317,79.543076 212.549393,76.345833 213.104919,71.924057 
	C214.052658,64.380318 215.366180,56.856030 217.052139,49.443230 
	C217.840546,45.976818 219.349548,42.424843 221.417648,39.548447 
	C226.445862,32.555035 232.044266,25.974377 237.314270,19.151182 
	C241.945816,13.154571 246.443298,7.054415 251.000000,0.999997 
	C254.692917,1.000000 258.385834,1.000000 262.570221,1.345867 
	C271.455627,12.379313 279.847412,23.068590 288.244446,33.753738 
	C292.250885,38.851887 296.063721,43.889366 297.433563,50.601387 
	C302.112854,73.529663 307.071869,96.402397 312.117920,119.253532 
	C314.187744,128.626556 315.500061,138.452148 319.371216,147.078156 
	C325.891571,161.607437 333.985138,175.453094 341.833832,189.350891 
	C344.369568,193.840912 347.785339,198.055450 351.573700,201.557510 
	C355.808990,205.472687 360.900482,208.470245 365.665955,211.800461 
	C369.090698,214.193756 372.591919,216.477646 377.002441,219.445068 
	C377.002441,212.823105 377.261688,207.505951 376.931732,202.225632 
	C376.580750,196.609482 378.467804,192.374603 383.472321,189.867126 
	C388.436035,187.380051 392.478668,189.951050 396.261475,192.878510 
	C403.870361,198.766922 411.184631,205.071762 419.073242,210.553177 
	C427.163361,216.174591 431.373718,222.916580 430.148712,233.155869 
	C429.343079,239.890060 429.722473,246.816284 430.152740,253.619720 
	C430.295471,255.876877 431.749695,258.591797 433.476013,260.099121 
	C437.462524,263.580048 441.984314,266.447540 446.285736,269.568329 
	C451.531586,273.374329 451.983490,273.138214 456.130859,267.909729 
	C459.383057,263.809723 462.762665,257.198944 466.687836,256.728577 
	C479.040405,255.248352 491.769318,255.221741 504.166504,256.474030 
	C510.917328,257.155945 510.933289,264.748688 510.947327,270.398895 
	C511.048004,310.882660 511.020477,351.366791 510.961578,391.850708 
	C510.957275,394.813080 510.556793,397.804413 510.043457,400.730133 
	C509.072968,406.261597 505.735931,408.979340 500.130981,408.989349 
	C486.969543,409.012909 473.808075,409.000092 460.646606,408.996277 
	C450.849182,408.993408 448.117126,406.430786 448.057526,396.694000 
	C448.037140,393.364899 447.216858,391.530914 443.538788,390.931030 
	C422.104126,387.435181 400.705444,383.719086 379.285217,380.133331 
	C378.426971,379.989655 377.474304,380.409912 376.166840,380.636566 
	C376.889587,382.357208 377.386810,383.735779 378.029755,385.042633 
	C389.348816,408.049500 400.172821,431.320892 412.224915,453.937714 
	C418.705383,466.098755 422.244690,478.218384 421.141388,491.988403 
	C420.561279,499.228729 421.583313,506.610443 417.000000,513.000000 
M280.220734,255.276031 
	C272.544617,246.161362 264.868500,237.046707 257.111145,227.835556 
	C256.114746,228.692078 255.550293,229.058228 255.135941,229.550690 
	C242.378830,244.713074 229.571686,259.834229 216.936737,275.097870 
	C213.728790,278.973236 210.101715,281.205933 204.964218,281.019073 
	C200.139374,280.843628 195.294998,281.154724 190.474533,280.927032 
	C187.046310,280.765137 185.793655,281.879272 185.847809,285.432068 
	C186.028091,297.257599 185.773468,309.090820 186.043777,320.912903 
	C186.093781,323.099915 187.285446,325.775513 188.843948,327.328949 
	C198.161545,336.616119 207.675934,345.710449 217.304367,354.676086 
	C218.705139,355.980408 221.066376,356.885193 222.990677,356.898621 
	C244.980209,357.051788 266.971649,357.058777 288.960999,356.894867 
	C291.055695,356.879242 293.598022,355.964600 295.154663,354.587830 
	C305.505615,345.432953 315.689026,336.086060 325.793152,326.658173 
	C326.981812,325.549042 327.984528,323.575470 328.007233,321.987335 
	C328.185974,309.495270 328.069489,296.999359 328.133728,284.505066 
	C328.146790,281.964569 327.212280,280.903992 324.618439,280.961456 
	C319.623138,281.072174 314.612793,280.780060 309.628510,281.037659 
	C304.131561,281.321716 300.089661,279.236938 296.696198,274.981293 
	C291.507599,268.474365 286.020081,262.205780 280.220734,255.276031 
M448.136841,325.500061 
	C448.136597,316.835999 448.182587,308.171417 448.088959,299.508362 
	C448.074005,298.125031 447.894012,296.150604 447.006348,295.466156 
	C441.423737,291.161713 435.619446,287.144806 429.182159,282.526093 
	C429.182159,289.944977 429.088196,296.239532 429.213013,302.529785 
	C429.306458,307.239105 428.049164,311.135345 423.490509,313.213989 
	C419.019135,315.252777 415.172516,313.863342 411.499817,310.944458 
	C402.244629,303.589020 392.997437,296.214233 383.520142,289.151703 
	C379.058990,285.827240 377.235779,281.809326 377.362854,276.352966 
	C377.576141,267.194092 377.485443,258.025604 377.354462,248.863571 
	C377.333130,247.370789 376.912292,245.266907 375.887512,244.502045 
	C367.015564,237.880188 357.963074,231.500168 348.341736,224.601700 
	C348.259796,226.089844 348.197937,226.689957 348.197845,227.290070 
	C348.192810,259.447021 348.173431,291.604004 348.245789,323.760803 
	C348.249695,325.510132 348.727051,327.401520 349.490570,328.982086 
	C353.539581,337.363800 357.647308,345.721954 362.003021,353.946106 
	C362.765228,355.385315 364.681702,356.826782 366.274628,357.116943 
	C381.167877,359.830017 396.102234,362.319946 411.034119,364.818054 
	C423.256744,366.862885 435.492279,368.830902 448.136841,370.900848 
	C448.136841,355.779663 448.136841,341.139862 448.136841,325.500061 
M165.867462,305.499878 
	C165.867462,278.802795 165.867462,252.105682 165.867462,224.557236 
	C156.471130,231.248138 147.892975,237.242340 139.497803,243.482681 
	C138.478836,244.240128 138.040421,246.318695 138.021408,247.793854 
	C137.894638,257.623779 137.848007,267.457794 138.001160,277.286926 
	C138.074646,282.003387 136.468353,285.592194 132.702896,288.473816 
	C123.049019,295.861725 113.457726,303.333588 103.938141,310.893707 
	C100.100426,313.941467 96.099655,315.352905 91.505753,313.041290 
	C87.065636,310.807007 85.951324,306.799866 86.029320,302.144806 
	C86.139130,295.590057 86.057098,289.032074 86.057098,281.654266 
	C79.865875,286.109161 74.605263,290.145691 69.071983,293.765381 
	C66.471840,295.466278 65.799683,297.403046 65.814232,300.334839 
	C65.923409,322.330292 65.869789,344.326538 65.882172,366.322540 
	C65.882996,367.790741 66.007065,369.258881 66.085869,370.992371 
	C89.703705,367.024780 112.903358,362.407837 136.316025,359.514465 
	C147.141418,358.176636 152.768402,353.860840 157.545410,344.112396 
	C163.511154,331.938080 167.398651,320.005859 165.867462,305.499878 
M261.500000,377.002167 
	C248.170013,377.002167 234.827667,376.660187 221.515030,377.140686 
	C214.435883,377.396210 209.122528,375.414764 204.305038,370.184753 
	C198.864105,364.277924 192.659866,359.074188 185.942978,352.772339 
	C185.942978,377.154999 185.899979,400.268585 186.063995,423.380707 
	C186.072617,424.595673 187.587479,426.260956 188.826065,426.930603 
	C196.296371,430.969543 203.957703,434.656250 211.412262,438.722687 
	C214.642303,440.484680 216.366486,439.861725 218.161163,436.713989 
	C222.945053,428.323364 228.106537,420.148895 232.966568,411.800415 
	C235.310318,407.774323 238.640305,405.952576 243.219788,405.984528 
	C251.217392,406.040314 259.224548,406.228943 267.210754,405.922150 
	C273.138550,405.694427 276.904907,408.205688 279.706024,413.220123 
	C284.091217,421.070404 288.921936,428.672607 293.270294,436.542175 
	C295.253876,440.132019 297.288116,440.560852 300.835083,438.720978 
	C308.519531,434.734802 316.348175,431.013153 324.226532,427.421722 
	C327.017029,426.149597 328.199097,424.575836 328.180939,421.405640 
	C328.055725,399.578461 328.122498,377.750275 328.091431,355.922424 
	C328.090027,354.921509 327.743439,353.921051 327.479004,352.497101 
	C319.368744,359.847748 311.899292,366.984192 303.974701,373.573242 
	C301.642700,375.512299 298.052124,376.739380 294.986450,376.849640 
	C284.169800,377.238800 273.330627,377.001740 261.500000,377.002167 
M35.094776,275.667603 
	C31.501141,275.667603 27.907507,275.667603 24.260622,275.667603 
	C24.260622,313.779572 24.260622,351.193512 24.260622,388.599548 
	C31.576473,388.599548 38.613674,388.599548 45.869862,388.599548 
	C45.869862,354.877075 45.889641,321.557404 45.842781,288.237823 
	C45.837418,284.422943 39.837223,277.018311 35.094776,275.667603 
M468.130432,295.558533 
	C468.130432,326.633057 468.130432,357.707550 468.130432,388.708435 
	C475.820007,388.708435 482.746216,388.708435 489.769012,388.708435 
	C489.769012,351.002716 489.769012,313.591949 489.769012,276.200409 
	C481.425110,274.541901 473.808228,274.738098 470.029541,283.661987 
	C468.625977,286.976562 468.719543,290.925110 468.130432,295.558533 
M144.321777,448.821442 
	C150.721039,442.496246 157.162888,436.213043 163.478378,429.805267 
	C164.554642,428.713318 165.760468,427.093872 165.772812,425.707977 
	C165.928055,408.297333 165.874649,390.884766 165.874649,373.472717 
	C165.566101,373.384399 165.257553,373.296051 164.949020,373.207733 
	C147.738724,407.878235 130.528427,442.548706 113.318146,477.219208 
	C114.063240,477.767975 114.808342,478.316742 115.553444,478.865509 
	C124.975861,469.017120 134.398270,459.168732 144.321777,448.821442 
M381.333466,438.096130 
	C370.589569,416.464600 359.845703,394.833069 349.101807,373.201538 
	C348.174835,390.801270 348.097504,408.071747 348.299408,425.338928 
	C348.318695,426.990814 349.779968,428.922211 351.077362,430.217560 
	C366.403656,445.519989 381.824188,460.728027 397.229492,475.951263 
	C397.993378,476.706116 398.844482,477.372742 399.654968,478.080475 
	C400.033051,477.836060 400.411102,477.591644 400.789185,477.347229 
	C394.436676,464.474670 388.084198,451.602142 381.333466,438.096130 
M409.208984,249.500305 
	C409.208588,243.847366 409.281036,238.192810 409.155701,232.542648 
	C409.125061,231.161041 408.879150,229.320053 407.987518,228.506271 
	C404.969604,225.751907 401.617401,223.363800 397.660126,220.261154 
	C397.526794,222.787476 397.372894,224.371353 397.370636,225.955429 
	C397.351440,239.588974 397.359558,253.222565 397.359589,266.856140 
	C397.359619,274.874725 400.999939,279.743134 409.209076,282.475983 
	C409.209076,271.767822 409.209076,261.134033 409.208984,249.500305 
M117.966896,252.499939 
	C117.966896,242.105606 117.966896,231.711258 117.966896,220.166290 
	C115.069550,222.388931 113.172745,224.202515 110.960846,225.463287 
	C106.844841,227.809387 105.823059,231.105759 105.929932,235.734070 
	C106.252029,249.682251 106.046158,263.642639 106.046158,277.598267 
	C106.046158,279.310944 106.046158,281.023621 106.046158,283.135101 
	C117.919586,276.276489 117.966896,276.197235 117.966904,263.966522 
	C117.966904,260.477631 117.966904,256.988708 117.966896,252.499939 
M218.277145,232.035339 
	C217.825317,235.377151 217.373505,238.718948 216.921677,242.060760 
	C217.367111,242.153641 217.812561,242.246521 218.257996,242.339401 
	C226.375458,232.697296 234.339523,222.919479 242.688477,213.482178 
	C245.875900,209.879288 247.301056,206.258362 247.039444,201.454926 
	C246.671829,194.705093 246.946548,187.920258 246.946548,181.150391 
	C246.598633,181.123459 246.250702,181.096512 245.902786,181.069565 
	C236.837601,197.839844 227.772415,214.610138 218.277145,232.035339 
M266.922821,206.859589 
	C267.165161,207.625900 267.202637,208.564072 267.680084,209.133102 
	C276.880432,220.098404 286.130402,231.022064 295.397949,241.930695 
	C295.502502,242.053772 295.973389,241.865631 297.611511,241.631485 
	C296.229218,237.145981 295.442017,232.600769 293.481903,228.635330 
	C289.063751,219.697159 284.060852,211.048218 279.303864,202.277237 
	C275.461212,195.192062 271.630371,188.100494 267.644745,180.735428 
	C267.227356,181.479340 266.962952,181.731186 266.961975,181.984039 
	C266.931061,189.980820 266.925751,197.977692 266.922821,206.859589 
M252.968826,32.435753 
	C249.199768,37.265816 245.430695,42.095875 241.773972,46.781982 
	C247.829681,58.549988 266.285797,58.469818 272.237549,46.775261 
	C267.321167,40.470860 262.291077,34.020649 257.055786,27.307268 
	C255.475266,29.285767 254.442444,30.578655 252.968826,32.435753 
M255.500519,443.969238 
	C261.548798,443.969238 267.597046,443.969238 274.400482,443.969238 
	C272.619019,440.838531 270.885559,438.569733 269.951782,436.009277 
	C266.812103,427.400024 260.876343,424.177124 252.014389,425.989929 
	C250.455063,426.308929 248.076401,426.025787 247.452133,426.950104 
	C243.899399,432.210480 240.764114,437.752777 237.023529,443.969238 
	C243.638977,443.969238 249.070282,443.969238 255.500519,443.969238 
z"/>
<path fill="#000000" opacity="1.000000" stroke="none" 
	d="
M250.531342,0.999997 
	C246.443298,7.054415 241.945816,13.154571 237.314270,19.151182 
	C232.044266,25.974377 226.445862,32.555035 221.417648,39.548447 
	C219.349548,42.424843 217.840546,45.976818 217.052139,49.443230 
	C215.366180,56.856030 214.052658,64.380318 213.104919,71.924057 
	C212.549393,76.345833 214.909317,79.543076 219.675415,81.377960 
	C218.915314,87.539429 217.818695,93.234535 216.359207,98.955460 
	C210.687592,100.129036 206.025726,102.096291 205.166885,108.324379 
	C204.400467,113.882187 207.407852,117.382568 211.899261,120.380493 
	C210.565735,126.169853 209.212067,131.563339 207.858414,136.956833 
	C201.984451,136.934021 198.519012,140.123260 195.871643,145.133041 
	C187.015961,161.891312 178.223862,178.699600 168.695831,195.074707 
	C166.284775,199.218430 161.376801,202.017181 157.353058,205.089340 
	C151.335205,209.683990 145.084366,213.973419 137.996262,219.065369 
	C137.996262,211.802185 137.891602,205.705795 138.032043,199.615036 
	C138.130051,195.363693 136.739975,192.284164 132.746567,190.316849 
	C128.510468,188.229965 124.641739,188.730438 121.082344,191.467682 
	C110.556931,199.561966 99.968857,207.590042 89.774673,216.087158 
	C87.692444,217.822754 86.307007,221.445267 86.171776,224.273102 
	C85.726570,233.582748 86.155006,242.931381 85.881210,252.254257 
	C85.822350,254.258331 84.754593,256.879059 83.246918,258.079926 
	C77.407089,262.731476 71.293320,267.063995 65.044846,271.153656 
	C63.971943,271.855865 61.097149,271.411041 60.171738,270.435944 
	C57.216309,267.321960 55.204102,263.236298 52.027992,260.431335 
	C49.258377,257.985413 45.514603,255.564560 42.009102,255.245834 
	C33.746174,254.494553 25.368649,254.996140 17.037495,255.004883 
	C7.625325,255.014755 3.221339,258.303070 3.162348,267.468170 
	C2.885664,310.454773 2.890937,353.445007 3.157167,396.431732 
	C3.208765,404.762878 6.786740,409.568665 16.461353,409.139618 
	C29.432478,408.564423 42.448395,409.030212 55.444839,408.982574 
	C62.447903,408.956909 66.262291,405.502808 65.872169,398.605957 
	C65.555130,393.000977 67.591759,391.418945 73.032608,390.604919 
	C93.852631,387.490021 114.569572,383.686798 135.330185,380.171204 
	C135.934631,380.068848 136.596985,380.308594 137.955551,380.480194 
	C137.175049,382.279266 136.610016,383.749115 135.916397,385.155548 
	C122.808014,411.736115 109.532959,438.236481 96.708710,464.953278 
	C94.497963,469.558960 93.687431,475.023834 93.136452,480.188538 
	C92.538879,485.789978 93.219109,491.515259 92.938995,497.166565 
	C92.664536,502.703796 93.830482,507.708893 96.966858,512.639404 
	C65.016319,513.000000 33.032642,513.000000 1.024482,513.000000 
	C1.024482,342.436707 1.024482,171.873398 1.024482,1.000000 
	C84.020638,1.000000 167.041656,1.000000 250.531342,0.999997 
z"/>
<path fill="#000000" opacity="1.000000" stroke="none" 
	d="
M417.468658,513.000000 
	C421.583313,506.610443 420.561279,499.228729 421.141388,491.988403 
	C422.244690,478.218384 418.705383,466.098755 412.224915,453.937714 
	C400.172821,431.320892 389.348816,408.049500 378.029755,385.042633 
	C377.386810,383.735779 376.889587,382.357208 376.166840,380.636566 
	C377.474304,380.409912 378.426971,379.989655 379.285217,380.133331 
	C400.705444,383.719086 422.104126,387.435181 443.538788,390.931030 
	C447.216858,391.530914 448.037140,393.364899 448.057526,396.694000 
	C448.117126,406.430786 450.849182,408.993408 460.646606,408.996277 
	C473.808075,409.000092 486.969543,409.012909 500.130981,408.989349 
	C505.735931,408.979340 509.072968,406.261597 510.043457,400.730133 
	C510.556793,397.804413 510.957275,394.813080 510.961578,391.850708 
	C511.020477,351.366791 511.048004,310.882660 510.947327,270.398895 
	C510.933289,264.748688 510.917328,257.155945 504.166504,256.474030 
	C491.769318,255.221741 479.040405,255.248352 466.687836,256.728577 
	C462.762665,257.198944 459.383057,263.809723 456.130859,267.909729 
	C451.983490,273.138214 451.531586,273.374329 446.285736,269.568329 
	C441.984314,266.447540 437.462524,263.580048 433.476013,260.099121 
	C431.749695,258.591797 430.295471,255.876877 430.152740,253.619720 
	C429.722473,246.816284 429.343079,239.890060 430.148712,233.155869 
	C431.373718,222.916580 427.163361,216.174591 419.073242,210.553177 
	C411.184631,205.071762 403.870361,198.766922 396.261475,192.878510 
	C392.478668,189.951050 388.436035,187.380051 383.472321,189.867126 
	C378.467804,192.374603 376.580750,196.609482 376.931732,202.225632 
	C377.261688,207.505951 377.002441,212.823105 377.002441,219.445068 
	C372.591919,216.477646 369.090698,214.193756 365.665955,211.800461 
	C360.900482,208.470245 355.808990,205.472687 351.573700,201.557510 
	C347.785339,198.055450 344.369568,193.840912 341.833832,189.350891 
	C333.985138,175.453094 325.891571,161.607437 319.371216,147.078156 
	C315.500061,138.452148 314.187744,128.626556 312.117920,119.253532 
	C307.071869,96.402397 302.112854,73.529663 297.433563,50.601387 
	C296.063721,43.889366 292.250885,38.851887 288.244446,33.753738 
	C279.847412,23.068590 271.455627,12.379313 263.030853,1.345867 
	C346.290833,1.000000 429.581665,1.000000 512.936279,1.000000 
	C512.936279,171.666656 512.936279,342.333344 512.936279,513.000000 
	C481.238373,513.000000 449.587860,513.000000 417.468658,513.000000 
z"/>
<path fill="#000000" opacity="1.000000" stroke="none" 
	d="
M110.468658,513.000000 
	C110.629356,511.871429 111.037750,510.519257 111.920418,509.647034 
	C133.121552,488.696503 154.330673,467.753204 175.734619,447.011169 
	C176.880829,445.900421 180.137009,445.750458 181.743958,446.529358 
	C192.072372,451.535461 202.165192,457.025665 212.456161,462.112518 
	C214.741287,463.242035 217.506607,463.903381 220.055603,463.917542 
	C244.048752,464.050781 268.043243,464.052032 292.036377,463.915710 
	C294.584808,463.901245 297.313965,463.165131 299.639954,462.079529 
	C310.496674,457.012329 321.282349,451.787109 331.997894,446.427399 
	C334.790894,445.030396 336.681061,445.103424 339.009766,447.412781 
	C359.699371,467.929901 380.509277,488.325653 401.252808,508.788513 
	C402.293762,509.815338 403.050354,511.130432 403.969666,512.655640 
	C306.312439,513.000000 208.624878,513.000000 110.468658,513.000000 
z"/>
<path fill="#3A658C" opacity="1.000000" stroke="none" 
	d="
M280.440094,255.556030 
	C286.020081,262.205780 291.507599,268.474365 296.696198,274.981293 
	C300.089661,279.236938 304.131561,281.321716 309.628510,281.037659 
	C314.612793,280.780060 319.623138,281.072174 324.618439,280.961456 
	C327.212280,280.903992 328.146790,281.964569 328.133728,284.505066 
	C328.069489,296.999359 328.185974,309.495270 328.007233,321.987335 
	C327.984528,323.575470 326.981812,325.549042 325.793152,326.658173 
	C315.689026,336.086060 305.505615,345.432953 295.154663,354.587830 
	C293.598022,355.964600 291.055695,356.879242 288.960999,356.894867 
	C266.971649,357.058777 244.980209,357.051788 222.990677,356.898621 
	C221.066376,356.885193 218.705139,355.980408 217.304367,354.676086 
	C207.675934,345.710449 198.161545,336.616119 188.843948,327.328949 
	C187.285446,325.775513 186.093781,323.099915 186.043777,320.912903 
	C185.773468,309.090820 186.028091,297.257599 185.847809,285.432068 
	C185.793655,281.879272 187.046310,280.765137 190.474533,280.927032 
	C195.294998,281.154724 200.139374,280.843628 204.964218,281.019073 
	C210.101715,281.205933 213.728790,278.973236 216.936737,275.097870 
	C229.571686,259.834229 242.378830,244.713074 255.135941,229.550690 
	C255.550293,229.058228 256.114746,228.692078 257.111145,227.835556 
	C264.868500,237.046707 272.544617,246.161362 280.440094,255.556030 
z"/>
<path fill="#3A648B" opacity="1.000000" stroke="none" 
	d="
M208.071320,137.233063 
	C209.212067,131.563339 210.565735,126.169853 212.320068,120.314667 
	C221.961639,119.841576 227.454285,114.402992 224.691711,106.986145 
	C223.489639,103.758896 219.464859,101.583015 216.722076,98.929634 
	C217.818695,93.234535 218.915314,87.539429 220.036316,81.432152 
	C229.075409,82.286667 232.562363,76.755066 233.731995,69.679901 
	C249.406372,77.914757 264.342072,77.506149 280.108978,70.021912 
	C280.207092,70.296898 280.747589,71.409744 281.002045,72.584541 
	C286.388885,97.455711 291.191376,122.472847 297.399261,147.136444 
	C299.620117,155.959869 305.049530,164.021866 309.325043,172.270432 
	C314.840302,182.910812 320.754456,193.344315 326.286255,203.976456 
	C327.384491,206.087250 328.014191,208.687836 328.038879,211.071060 
	C328.194092,226.059219 327.940735,241.053070 328.222443,256.037537 
	C328.309265,260.654236 326.277100,261.154541 322.543549,261.062622 
	C319.066040,260.977020 316.069092,261.070618 316.737762,256.212402 
	C319.364532,237.127151 313.199432,220.633698 303.482819,204.365799 
	C290.347412,182.374054 278.793518,159.435532 266.650116,136.855347 
	C264.417023,132.702972 261.470795,129.907410 256.541718,130.043884 
	C251.842743,130.173996 249.130493,133.014786 247.000443,136.972961 
	C231.537216,165.707428 215.860931,194.328140 200.576080,223.156662 
	C198.500229,227.071915 197.620010,231.893951 197.259903,236.382278 
	C196.715500,243.167389 196.896622,250.037506 197.185898,256.853821 
	C197.399033,261.876434 194.104675,260.884674 191.227234,260.987671 
	C188.242538,261.094513 185.767776,261.227325 185.829895,256.791931 
	C186.049133,241.139038 185.846298,225.480530 186.001511,209.826096 
	C186.021652,207.795502 186.909088,205.622375 187.887115,203.776077 
	C196.459579,187.593231 205.182236,171.490005 213.779770,155.320328 
	C218.440674,146.554413 217.008774,142.115387 208.071320,137.233063 
z"/>
<path fill="#D2EDFA" opacity="1.000000" stroke="none" 
	d="
M448.136841,326.000061 
	C448.136841,341.139862 448.136841,355.779663 448.136841,370.900848 
	C435.492279,368.830902 423.256744,366.862885 411.034119,364.818054 
	C396.102234,362.319946 381.167877,359.830017 366.274628,357.116943 
	C364.681702,356.826782 362.765228,355.385315 362.003021,353.946106 
	C357.647308,345.721954 353.539581,337.363800 349.490570,328.982086 
	C348.727051,327.401520 348.249695,325.510132 348.245789,323.760803 
	C348.173431,291.604004 348.192810,259.447021 348.197845,227.290070 
	C348.197937,226.689957 348.259796,226.089844 348.341736,224.601700 
	C357.963074,231.500168 367.015564,237.880188 375.887512,244.502045 
	C376.912292,245.266907 377.333130,247.370789 377.354462,248.863571 
	C377.485443,258.025604 377.576141,267.194092 377.362854,276.352966 
	C377.235779,281.809326 379.058990,285.827240 383.520142,289.151703 
	C392.997437,296.214233 402.244629,303.589020 411.499817,310.944458 
	C415.172516,313.863342 419.019135,315.252777 423.490509,313.213989 
	C428.049164,311.135345 429.306458,307.239105 429.213013,302.529785 
	C429.088196,296.239532 429.182159,289.944977 429.182159,282.526093 
	C435.619446,287.144806 441.423737,291.161713 447.006348,295.466156 
	C447.894012,296.150604 448.074005,298.125031 448.088959,299.508362 
	C448.182587,308.171417 448.136597,316.835999 448.136841,326.000061 
z"/>
<path fill="#D3EEFB" opacity="1.000000" stroke="none" 
	d="
M165.867462,305.999786 
	C167.398651,320.005859 163.511154,331.938080 157.545410,344.112396 
	C152.768402,353.860840 147.141418,358.176636 136.316025,359.514465 
	C112.903358,362.407837 89.703705,367.024780 66.085869,370.992371 
	C66.007065,369.258881 65.882996,367.790741 65.882172,366.322540 
	C65.869789,344.326538 65.923409,322.330292 65.814232,300.334839 
	C65.799683,297.403046 66.471840,295.466278 69.071983,293.765381 
	C74.605263,290.145691 79.865875,286.109161 86.057098,281.654266 
	C86.057098,289.032074 86.139130,295.590057 86.029320,302.144806 
	C85.951324,306.799866 87.065636,310.807007 91.505753,313.041290 
	C96.099655,315.352905 100.100426,313.941467 103.938141,310.893707 
	C113.457726,303.333588 123.049019,295.861725 132.702896,288.473816 
	C136.468353,285.592194 138.074646,282.003387 138.001160,277.286926 
	C137.848007,267.457794 137.894638,257.623779 138.021408,247.793854 
	C138.040421,246.318695 138.478836,244.240128 139.497803,243.482681 
	C147.892975,237.242340 156.471130,231.248138 165.867462,224.557236 
	C165.867462,252.105682 165.867462,278.802795 165.867462,305.999786 
z"/>
<path fill="#3A658C" opacity="1.000000" stroke="none" 
	d="
M262.000000,377.002167 
	C273.330627,377.001740 284.169800,377.238800 294.986450,376.849640 
	C298.052124,376.739380 301.642700,375.512299 303.974701,373.573242 
	C311.899292,366.984192 319.368744,359.847748 327.479004,352.497101 
	C327.743439,353.921051 328.090027,354.921509 328.091431,355.922424 
	C328.122498,377.750275 328.055725,399.578461 328.180939,421.405640 
	C328.199097,424.575836 327.017029,426.149597 324.226532,427.421722 
	C316.348175,431.013153 308.519531,434.734802 300.835083,438.720978 
	C297.288116,440.560852 295.253876,440.132019 293.270294,436.542175 
	C288.921936,428.672607 284.091217,421.070404 279.706024,413.220123 
	C276.904907,408.205688 273.138550,405.694427 267.210754,405.922150 
	C259.224548,406.228943 251.217392,406.040314 243.219788,405.984528 
	C238.640305,405.952576 235.310318,407.774323 232.966568,411.800415 
	C228.106537,420.148895 222.945053,428.323364 218.161163,436.713989 
	C216.366486,439.861725 214.642303,440.484680 211.412262,438.722687 
	C203.957703,434.656250 196.296371,430.969543 188.826065,426.930603 
	C187.587479,426.260956 186.072617,424.595673 186.063995,423.380707 
	C185.899979,400.268585 185.942978,377.154999 185.942978,352.772339 
	C192.659866,359.074188 198.864105,364.277924 204.305038,370.184753 
	C209.122528,375.414764 214.435883,377.396210 221.515030,377.140686 
	C234.827667,376.660187 248.170013,377.002167 262.000000,377.002167 
z"/>
<path fill="#F8CD23" opacity="1.000000" stroke="none" 
	d="
M35.538643,275.670776 
	C39.837223,277.018311 45.837418,284.422943 45.842781,288.237823 
	C45.889641,321.557404 45.869862,354.877075 45.869862,388.599548 
	C38.613674,388.599548 31.576473,388.599548 24.260622,388.599548 
	C24.260622,351.193512 24.260622,313.779572 24.260622,275.667603 
	C27.907507,275.667603 31.501141,275.667603 35.538643,275.670776 
z"/>
<path fill="#F8CD23" opacity="1.000000" stroke="none" 
	d="
M468.130432,295.071533 
	C468.719543,290.925110 468.625977,286.976562 470.029541,283.661987 
	C473.808228,274.738098 481.425110,274.541901 489.769012,276.200409 
	C489.769012,313.591949 489.769012,351.002716 489.769012,388.708435 
	C482.746216,388.708435 475.820007,388.708435 468.130432,388.708435 
	C468.130432,357.707550 468.130432,326.633057 468.130432,295.071533 
z"/>
<path fill="#D0EAF7" opacity="1.000000" stroke="none" 
	d="
M144.071228,449.070892 
	C134.398270,459.168732 124.975861,469.017120 115.553444,478.865509 
	C114.808342,478.316742 114.063240,477.767975 113.318146,477.219208 
	C130.528427,442.548706 147.738724,407.878235 164.949020,373.207733 
	C165.257553,373.296051 165.566101,373.384399 165.874649,373.472717 
	C165.874649,390.884766 165.928055,408.297333 165.772812,425.707977 
	C165.760468,427.093872 164.554642,428.713318 163.478378,429.805267 
	C157.162888,436.213043 150.721039,442.496246 144.071228,449.070892 
z"/>
<path fill="#CFE9F6" opacity="1.000000" stroke="none" 
	d="
M381.532593,438.412842 
	C388.084198,451.602142 394.436676,464.474670 400.789185,477.347229 
	C400.411102,477.591644 400.033051,477.836060 399.654968,478.080475 
	C398.844482,477.372742 397.993378,476.706116 397.229492,475.951263 
	C381.824188,460.728027 366.403656,445.519989 351.077362,430.217560 
	C349.779968,428.922211 348.318695,426.990814 348.299408,425.338928 
	C348.097504,408.071747 348.174835,390.801270 349.101807,373.201538 
	C359.845703,394.833069 370.589569,416.464600 381.532593,438.412842 
z"/>
<path fill="#F67687" opacity="1.000000" stroke="none" 
	d="
M409.209045,250.000259 
	C409.209076,261.134033 409.209076,271.767822 409.209076,282.475983 
	C400.999939,279.743134 397.359619,274.874725 397.359589,266.856140 
	C397.359558,253.222565 397.351440,239.588974 397.370636,225.955429 
	C397.372894,224.371353 397.526794,222.787476 397.660126,220.261154 
	C401.617401,223.363800 404.969604,225.751907 407.987518,228.506271 
	C408.879150,229.320053 409.125061,231.161041 409.155701,232.542648 
	C409.281036,238.192810 409.208588,243.847366 409.209045,250.000259 
z"/>
<path fill="#FA788A" opacity="1.000000" stroke="none" 
	d="
M117.966896,252.999878 
	C117.966904,256.988708 117.966904,260.477631 117.966904,263.966522 
	C117.966896,276.197235 117.919586,276.276489 106.046158,283.135101 
	C106.046158,281.023621 106.046158,279.310944 106.046158,277.598267 
	C106.046158,263.642639 106.252029,249.682251 105.929932,235.734070 
	C105.823059,231.105759 106.844841,227.809387 110.960846,225.463287 
	C113.172745,224.202515 115.069550,222.388931 117.966896,220.166290 
	C117.966896,231.711258 117.966896,242.105606 117.966896,252.999878 
z"/>
<path fill="#ADCFEF" opacity="1.000000" stroke="none" 
	d="
M218.492188,231.707886 
	C227.772415,214.610138 236.837601,197.839844 245.902786,181.069565 
	C246.250702,181.096512 246.598633,181.123459 246.946548,181.150391 
	C246.946548,187.920258 246.671829,194.705093 247.039444,201.454926 
	C247.301056,206.258362 245.875900,209.879288 242.688477,213.482178 
	C234.339523,222.919479 226.375458,232.697296 218.257996,242.339401 
	C217.812561,242.246521 217.367111,242.153641 216.921677,242.060760 
	C217.373505,238.718948 217.825317,235.377151 218.492188,231.707886 
z"/>
<path fill="#AECFEF" opacity="1.000000" stroke="none" 
	d="
M266.919678,206.417084 
	C266.925751,197.977692 266.931061,189.980820 266.961975,181.984039 
	C266.962952,181.731186 267.227356,181.479340 267.644745,180.735428 
	C271.630371,188.100494 275.461212,195.192062 279.303864,202.277237 
	C284.060852,211.048218 289.063751,219.697159 293.481903,228.635330 
	C295.442017,232.600769 296.229218,237.145981 297.611511,241.631485 
	C295.973389,241.865631 295.502502,242.053772 295.397949,241.930695 
	C286.130402,231.022064 276.880432,220.098404 267.680084,209.133102 
	C267.202637,208.564072 267.165161,207.625900 266.919678,206.417084 
z"/>
<path fill="#FC798B" opacity="1.000000" stroke="none" 
	d="
M253.189224,32.153648 
	C254.442444,30.578655 255.475266,29.285767 257.055786,27.307268 
	C262.291077,34.020649 267.321167,40.470860 272.237549,46.775261 
	C266.285797,58.469818 247.829681,58.549988 241.773972,46.781982 
	C245.430695,42.095875 249.199768,37.265816 253.189224,32.153648 
z"/>
<path fill="#F7CC23" opacity="1.000000" stroke="none" 
	d="
M255.001053,443.969238 
	C249.070282,443.969238 243.638977,443.969238 237.023529,443.969238 
	C240.764114,437.752777 243.899399,432.210480 247.452133,426.950104 
	C248.076401,426.025787 250.455063,426.308929 252.014389,425.989929 
	C260.876343,424.177124 266.812103,427.400024 269.951782,436.009277 
	C270.885559,438.569733 272.619019,440.838531 274.400482,443.969238 
	C267.597046,443.969238 261.548798,443.969238 255.001053,443.969238 
z"/>
<path fill="#232022" opacity="1.000000" stroke="none" 
	d="
M216.359207,98.955460 
	C219.464859,101.583015 223.489639,103.758896 224.691711,106.986145 
	C227.454285,114.402992 221.961639,119.841576 212.299942,119.918808 
	C207.407852,117.382568 204.400467,113.882187 205.166885,108.324379 
	C206.025726,102.096291 210.687592,100.129036 216.359207,98.955460 
z"/>
</svg>